<svg width="23" height="38" viewBox="0 0 23 38" fill="none" xmlns="http://www.w3.org/2000/svg">
<path d="M11.8141 1.45716C11.7904 0.629071 11.0999 -0.0230478 10.2718 0.000611901C9.44374 0.0242716 8.79162 0.71475 8.81528 1.54284L11.8141 1.45716ZM10.2847 37.5905C10.887 38.1593 11.8364 38.1322 12.4052 37.5299L21.6746 27.7153C22.2434 27.113 22.2163 26.1636 21.614 25.5948C21.0117 25.026 20.0624 25.0531 19.4936 25.6554L11.2541 34.3795L2.52993 26.1401C1.92765 25.5712 0.978288 25.5984 0.40947 26.2006C-0.159348 26.8029 -0.132224 27.7523 0.470054 28.3211L10.2847 37.5905ZM8.81528 1.54284L9.81528 36.5428L12.8141 36.4572L11.8141 1.45716L8.81528 1.54284Z" fill="#EF7E1C"/>
</svg>
